# xmcd CD database file
#
# Track frame offsets:
#	150
#	19925
#	43716
#	68093
#	89076
#	115666
#	136514
#	154862
#	167733
#	191822
#	215137
#	239032
#	260764
#	289380
#
# Disc length: 4030 seconds
#
# Revision: 0
# Processed by: cddbd v1.5.2PL0 Copyright (c) Steve Scherf et al.
# Submitted via: CDex 1.70beta2
#
DISCID=d90fbc0e
DTITLE=中島美嘉 Mika Nakashima - Yes
DYEAR=1900
DGENRE=New Age
TTITLE0=I LOVE YOU (Album Ver.)
TTITLE1=見えない星
TTITLE2=素直なまま
TTITLE3=CRY NO MORE
TTITLE4=ALL HANDS TOGETHER
TTITLE5=DANCE WITH THE DEVIL
TTITLE6=BLACK and BLUE
TTITLE7=JOY
TTITLE8=THE DIVIDING LINE
TTITLE9=MY SUGAR CAT
TTITLE10=汚れた花
TTITLE11=GOING BACK HOME
TTITLE12=祈念歌
TTITLE13=WHAT A WONDERFUL WORLD
EXTD=
EXTT0=
EXTT1=
EXTT2=
EXTT3=
EXTT4=
EXTT5=
EXTT6=
EXTT7=
EXTT8=
EXTT9=
EXTT10=
EXTT11=
EXTT12=
EXTT13=
PLAYORDER=
